mtllib OBJ_NEW_PCB.mtl
usemtl mtl1
v 4029.7233499999998 -3060.55215 0
v 4029.7233499999998 -3014.9399999999996 0
v 4029.7233499999998 -3014.9399999999996 10
vn 456.12150000000383 0 0
f 1//1 2//1 3//1
v 4029.7233499999998 -3060.55215 10
f 3//1 4//1 1//1
v 4070.2744500000003 -3014.9399999999996 0
v 4070.2744500000003 -3014.9399999999996 10
vn 0 -405.5110000000059 0
f 2//2 5//2 6//2
f 6//2 3//2 2//2
v 4070.2744500000003 -3060.55215 0
v 4070.2744500000003 -3060.55215 10
vn -456.12150000000383 0 0
f 5//3 7//3 8//3
f 8//3 6//3 5//3
vn 0 405.5110000000059 0
f 7//4 1//4 4//4
f 4//4 8//4 7//4
v 4056.0609645667146 -3051.9525001283064 0
v 4057.170831449203 -3052.4593593502486 0
v 4057.170831449203 -3052.4593593502486 10
vn -5.068592219422499 -11.098668824884044 0
f 9//5 10//5 11//5
v 4056.0609645667146 -3051.9525001283064 10
f 11//5 12//5 9//5
v 4058.378539669154 -3052.2857171227406 0
v 4058.378539669154 -3052.2857171227406 10
vn 1.7364222750802583 -12.077082199512006 0
f 10//6 13//6 14//6
f 14//6 11//6 10//6
v 4059.3006503999923 -3051.486703626118 0
v 4059.3006503999923 -3051.486703626118 10
vn 7.990134966225924 -9.221107308380851 0
f 13//7 15//7 16//7
f 16//7 14//7 13//7
v 4059.6443999999997 -3050.316 0
v 4059.6443999999997 -3050.316 10
vn 11.707036261182111 -3.437496000074134 0
f 15//8 17//8 18//8
f 18//8 16//8 15//8
v 4059.3006503999923 -3049.1452963738816 0
v 4059.3006503999923 -3049.1452963738816 10
vn 11.707036261182111 3.437496000074134 0
f 17//9 19//9 20//9
f 20//9 18//9 17//9
v 4058.378539669154 -3048.346282877259 0
v 4058.378539669154 -3048.346282877259 10
vn 7.990134966225924 9.221107308380851 0
f 19//10 21//10 22//10
f 22//10 20//10 19//10
v 4057.170831449203 -3048.172640649751 0
v 4057.170831449203 -3048.172640649751 10
vn 1.7364222750802583 12.077082199512006 0
f 21//11 23//11 24//11
f 24//11 22//11 21//11
v 4056.0609645667146 -3048.679499871693 0
v 4056.0609645667146 -3048.679499871693 10
vn -5.068592219422499 11.098668824884044 0
f 23//12 25//12 26//12
f 26//12 24//12 23//12
v 4055.401313914935 -3049.7059363214153 0
v 4055.401313914935 -3049.7059363214153 10
vn -10.264364497220413 6.596506517794296 0
f 25//13 27//13 28//13
f 28//13 26//13 25//13
v 4055.401313914935 -3050.9260636785843 0
v 4055.401313914935 -3050.9260636785843 10
vn -12.201273571690763 0 0
f 27//14 29//14 30//14
f 30//14 28//14 27//14
vn -10.264364497220413 -6.596506517794296 0
f 29//15 9//15 12//15
f 12//15 30//15 29//15
v 4041.1009645667145 -3051.9525001283064 0
v 4042.210831449203 -3052.4593593502486 0
v 4042.210831449203 -3052.4593593502486 10
f 31//5 32//5 33//5
v 4041.1009645667145 -3051.9525001283064 10
f 33//5 34//5 31//5
v 4043.418539669154 -3052.2857171227406 0
v 4043.418539669154 -3052.2857171227406 10
f 32//6 35//6 36//6
f 36//6 33//6 32//6
v 4044.3406503999922 -3051.486703626118 0
v 4044.3406503999922 -3051.486703626118 10
f 35//7 37//7 38//7
f 38//7 36//7 35//7
v 4044.6843999999996 -3050.316 0
v 4044.6843999999996 -3050.316 10
f 37//8 39//8 40//8
f 40//8 38//8 37//8
v 4044.3406503999922 -3049.1452963738816 0
v 4044.3406503999922 -3049.1452963738816 10
f 39//9 41//9 42//9
f 42//9 40//9 39//9
v 4043.418539669154 -3048.346282877259 0
v 4043.418539669154 -3048.346282877259 10
f 41//10 43//10 44//10
f 44//10 42//10 41//10
v 4042.210831449203 -3048.172640649751 0
v 4042.210831449203 -3048.172640649751 10
f 43//11 45//11 46//11
f 46//11 44//11 43//11
v 4041.1009645667145 -3048.679499871693 0
v 4041.1009645667145 -3048.679499871693 10
f 45//12 47//12 48//12
f 48//12 46//12 45//12
v 4040.441313914935 -3049.7059363214153 0
v 4040.441313914935 -3049.7059363214153 10
f 47//13 49//13 50//13
f 50//13 48//13 47//13
v 4040.441313914935 -3050.9260636785843 0
v 4040.441313914935 -3050.9260636785843 10
f 49//14 51//14 52//14
f 52//14 50//14 49//14
f 51//15 31//15 34//15
f 34//15 52//15 51//15
v 4029.7233499999998 -3052.4593593502486 0
v 4070.2744500000003 -3052.4593593502486 0
vn 0 0 -328.1715629171367
f 53//16 54//16 7//16
v 4029.7233499999998 -3052.4593593502486 10
v 4070.2744500000003 -3052.4593593502486 10
f 55//16 56//16 8//16
f 7//16 1//16 53//16
f 8//16 4//16 55//16
v 4029.7233499999998 -3052.2857171227406 0
v 4041.830608007723 -3052.2857171227406 0
vn 0 0 -2.1023312494754793
f 57//17 58//17 32//17
v 4029.7233499999998 -3052.2857171227406 10
v 4041.830608007723 -3052.2857171227406 10
f 59//17 60//17 33//17
vn 0 0 -2.168354094804792
f 32//18 53//18 57//18
f 33//18 55//18 59//18
v 4056.790608007723 -3052.2857171227406 0
vn 0 0 -2.321955732698681
f 35//19 61//19 10//19
v 4056.790608007723 -3052.2857171227406 10
f 36//19 62//19 11//19
vn 0 0 -2.597687723520073
f 10//20 32//20 35//20
f 11//20 33//20 36//20
v 4070.2744500000003 -3052.2857171227406 0
vn 0 0 -2.065632368083864
f 13//21 63//21 54//21
v 4070.2744500000003 -3052.2857171227406 10
f 14//21 64//21 56//21
vn 0 0 -2.2753415135759436
f 54//22 10//22 13//22
f 56//22 11//22 14//22
v 4029.7233499999998 -3051.9525001283064 0
vn 0 0 -3.791214529751746
f 65//23 31//23 58//23
v 4029.7233499999998 -3051.9525001283064 10
f 66//23 34//23 60//23
vn 0 0 -4.034344124173293
f 58//24 57//24 65//24
f 60//24 59//24 66//24
v 4043.8030925804183 -3051.9525001283064 0
vn 0 0 -4.084531261433132
f 67//25 9//25 61//25
v 4043.8030925804183 -3051.9525001283064 10
f 68//25 12//25 62//25
vn 0 0 -4.455800421147036
f 61//26 35//26 67//26
f 62//26 36//26 68//26
v 4058.7630925804183 -3051.9525001283064 0
v 4070.2744500000003 -3051.9525001283064 0
vn 0 0 -3.835779921211237
f 69//27 70//27 63//27
v 4058.7630925804183 -3051.9525001283064 10
v 4070.2744500000003 -3051.9525001283064 10
f 71//27 72//27 64//27
vn 0 0 -3.9639194865035945
f 63//28 13//28 69//28
f 64//28 14//28 71//28
v 4029.7233499999998 -3051.486703626118 0
v 4040.8016153314566 -3051.486703626118 0
vn 0 0 -5.160217241707245
f 73//29 74//29 31//29
v 4029.7233499999998 -3051.486703626118 10
v 4040.8016153314566 -3051.486703626118 10
f 75//29 76//29 34//29
vn 0 0 -5.299653068423174
f 31//30 65//30 73//30
f 34//30 66//30 75//30
v 4055.7616153314566 -3051.486703626118 0
vn 0 0 -5.31984551669212
f 37//31 77//31 9//31
v 4055.7616153314566 -3051.486703626118 10
f 38//31 78//31 12//31
vn 0 0 -5.709673895489614
f 9//32 67//32 37//32
f 12//32 68//32 38//32
v 4070.2744500000003 -3051.486703626118 0
vn 0 0 -5.111557469399878
f 15//33 79//33 70//33
v 4070.2744500000003 -3051.486703626118 10
f 16//33 80//33 72//33
vn 0 0 -5.361950021481443
f 70//34 69//34 15//34
f 72//34 71//34 16//34
v 4029.7233499999998 -3050.9260636785843 0
vn 0 0 -6.008918726937156
f 81//35 51//35 74//35
v 4029.7233499999998 -3050.9260636785843 10
f 82//35 52//35 76//35
vn 0 0 -6.210918094192051
f 74//36 73//36 81//36
f 76//36 75//36 82//36
v 4044.5052691415876 -3050.9260636785843 0
vn 0 0 -6.108757970054101
f 83//37 29//37 77//37
v 4044.5052691415876 -3050.9260636785843 10
f 84//37 30//37 78//37
vn 0 0 -6.403049179960102
f 77//38 37//38 83//38
f 78//38 38//38 84//38
v 4059.4652691415877 -3050.9260636785843 0
v 4070.2744500000003 -3050.9260636785843 0
vn 0 0 -6.060058589342463
f 85//39 86//39 79//39
v 4059.4652691415877 -3050.9260636785843 10
v 4070.2744500000003 -3050.9260636785843 10
f 87//39 88//39 80//39
vn 0 0 -6.152350431993571
f 79//40 15//40 85//40
f 80//40 16//40 87//40
v 4029.7233499999998 -3050.316 0
v 4040.441313914935 -3050.316 0
vn 0 0 -6.538640492881799
f 89//41 90//41 51//41
v 4029.7233499999998 -3050.316 10
v 4040.441313914935 -3050.316 10
f 91//41 92//41 52//41
f 51//41 81//41 89//41
f 52//41 82//41 91//41
v 4055.401313914935 -3050.316 0
vn 0 0 -6.537999926019377
f 39//42 93//42 29//42
v 4055.401313914935 -3050.316 10
f 40//42 94//42 30//42
vn 0 0 -6.647281156450213
f 29//43 83//43 39//43
f 30//43 84//43 40//43
v 4070.2744500000003 -3050.316 0
vn 0 0 -6.485007406537975
f 17//44 95//44 86//44
v 4070.2744500000003 -3050.316 10
f 18//44 96//44 88//44
vn 0 0 -6.594288636968812
f 86//45 85//45 17//45
f 88//45 87//45 18//45
v 4029.7233499999998 -3049.7059363214153 0
f 97//41 49//41 90//41
v 4029.7233499999998 -3049.7059363214153 10
f 98//41 50//41 92//41
f 90//41 89//41 97//41
f 92//41 91//41 98//41
v 4044.5052691415876 -3049.7059363214153 0
f 99//43 27//43 93//43
v 4044.5052691415876 -3049.7059363214153 10
f 100//43 28//43 94//43
f 93//42 39//42 99//42
f 94//42 40//42 100//42
v 4059.4652691415877 -3049.7059363214153 0
v 4070.2744500000003 -3049.7059363214153 0
f 101//45 102//45 95//45
v 4059.4652691415877 -3049.7059363214153 10
v 4070.2744500000003 -3049.7059363214153 10
f 103//45 104//45 96//45
f 95//44 17//44 101//44
f 96//44 18//44 103//44
v 4029.7233499999998 -3049.1452963738816 0
v 4040.8016153314566 -3049.1452963738816 0
f 105//36 106//36 49//36
v 4029.7233499999998 -3049.1452963738816 10
v 4040.8016153314566 -3049.1452963738816 10
f 107//36 108//36 50//36
f 49//35 97//35 105//35
f 50//35 98//35 107//35
v 4055.7616153314566 -3049.1452963738816 0
f 41//38 109//38 27//38
v 4055.7616153314566 -3049.1452963738816 10
f 42//38 110//38 28//38
f 27//37 99//37 41//37
f 28//37 100//37 42//37
v 4070.2744500000003 -3049.1452963738816 0
f 19//40 111//40 102//40
v 4070.2744500000003 -3049.1452963738816 10
f 20//40 112//40 104//40
f 102//39 101//39 19//39
f 104//39 103//39 20//39
v 4029.7233499999998 -3048.679499871693 0
f 113//30 47//30 106//30
v 4029.7233499999998 -3048.679499871693 10
f 114//30 48//30 108//30
f 106//29 105//29 113//29
f 108//29 107//29 114//29
v 4043.8030925804183 -3048.679499871693 0
f 115//32 25//32 109//32
v 4043.8030925804183 -3048.679499871693 10
f 116//32 26//32 110//32
f 109//31 41//31 115//31
f 110//31 42//31 116//31
v 4058.7630925804183 -3048.679499871693 0
v 4070.2744500000003 -3048.679499871693 0
f 117//34 118//34 111//34
v 4058.7630925804183 -3048.679499871693 10
v 4070.2744500000003 -3048.679499871693 10
f 119//34 120//34 112//34
f 111//33 19//33 117//33
f 112//33 20//33 119//33
v 4029.7233499999998 -3048.346282877259 0
v 4041.830608007723 -3048.346282877259 0
f 121//24 122//24 47//24
v 4029.7233499999998 -3048.346282877259 10
v 4041.830608007723 -3048.346282877259 10
f 123//24 124//24 48//24
f 47//23 113//23 121//23
f 48//23 114//23 123//23
v 4056.790608007723 -3048.346282877259 0
f 43//26 125//26 25//26
v 4056.790608007723 -3048.346282877259 10
f 44//26 126//26 26//26
f 25//25 115//25 43//25
f 26//25 116//25 44//25
v 4070.2744500000003 -3048.346282877259 0
f 21//28 127//28 118//28
v 4070.2744500000003 -3048.346282877259 10
f 22//28 128//28 120//28
f 118//27 117//27 21//27
f 120//27 119//27 22//27
v 4029.7233499999998 -3048.172640649751 0
f 129//18 45//18 122//18
v 4029.7233499999998 -3048.172640649751 10
f 130//18 46//18 124//18
f 122//17 121//17 129//17
f 124//17 123//17 130//17
f 45//20 23//20 125//20
f 46//20 24//20 126//20
f 125//19 43//19 45//19
f 126//19 44//19 46//19
v 4070.2744500000003 -3048.172640649751 0
f 23//22 131//22 127//22
v 4070.2744500000003 -3048.172640649751 10
f 24//22 132//22 128//22
f 127//21 21//21 23//21
f 128//21 22//21 24//21
vn 0 0 -1347.6201342521524
f 2//46 5//46 131//46
f 3//46 6//46 132//46
f 131//46 129//46 2//46
f 132//46 130//46 3//46